<?xml version="1.0" encoding="UTF-8" standalone="no"?>
<svg
   width="24px"
   height="24px"
   stroke-width="1.5"
   viewBox="0 0 24 24"
   fill="none"
   color="#000000"
   version="1.1"
   id="svg3"
   sodipodi:docname="reel-circled.svg"
   inkscape:version="1.3.2 (1:1.3.2+202404261509+091e20ef0f)"
   xml:space="preserve"
   xmlns:inkscape="http://www.inkscape.org/namespaces/inkscape"
   xmlns:sodipodi="http://sodipodi.sourceforge.net/DTD/sodipodi-0.dtd"
   xmlns="http://www.w3.org/2000/svg"
   xmlns:svg="http://www.w3.org/2000/svg"><defs
     id="defs3" /><sodipodi:namedview
     id="namedview3"
     pagecolor="#ffffff"
     bordercolor="#000000"
     borderopacity="0.25"
     inkscape:showpageshadow="2"
     inkscape:pageopacity="0.0"
     inkscape:pagecheckerboard="0"
     inkscape:deskcolor="#d1d1d1"
     inkscape:zoom="17.972297"
     inkscape:cx="17.916463"
     inkscape:cy="0.63987368"
     inkscape:window-width="2478"
     inkscape:window-height="1240"
     inkscape:window-x="1396"
     inkscape:window-y="77"
     inkscape:window-maximized="0"
     inkscape:current-layer="g3" /><g
     style="fill:none"
     id="g3"
     transform="matrix(0.99672844,0,0,0.99672844,0.03925872,0.03925872)"><path
       d="M 12,22 H 22"
       stroke="#1c274c"
       stroke-width="1.5"
       stroke-linecap="round"
       id="path1-7"
       style="stroke:#000000;stroke-opacity:1" /><path
       d="M 13.5,7.5 C 13.5,8.32843 12.8284,9 12,9 11.1716,9 10.5,8.32843 10.5,7.5 10.5,6.67157 11.1716,6 12,6 c 0.8284,0 1.5,0.67157 1.5,1.5 z"
       stroke="#1c274c"
       stroke-width="1.5"
       id="path2"
       style="stroke:#000000;stroke-opacity:1" /><path
       d="m 13.5,16.5 c 0,0.8284 -0.6716,1.5 -1.5,1.5 -0.8284,0 -1.5,-0.6716 -1.5,-1.5 0,-0.8284 0.6716,-1.5 1.5,-1.5 0.8284,0 1.5,0.6716 1.5,1.5 z"
       stroke="#1c274c"
       stroke-width="1.5"
       id="path3"
       style="stroke:#000000;stroke-opacity:1" /><path
       d="M 7.5,10.5 C 8.32843,10.5 9,11.1716 9,12 9,12.8284 8.32843,13.5 7.5,13.5 6.67157,13.5 6,12.8284 6,12 6,11.1716 6.67157,10.5 7.5,10.5 Z"
       stroke="#1c274c"
       stroke-width="1.5"
       id="path4"
       style="stroke:#000000;stroke-opacity:1" /><path
       d="m 16.5,10.5 c 0.8284,0 1.5,0.6716 1.5,1.5 0,0.8284 -0.6716,1.5 -1.5,1.5 -0.8284,0 -1.5,-0.6716 -1.5,-1.5 0,-0.8284 0.6716,-1.5 1.5,-1.5 z"
       stroke="#1c274c"
       stroke-width="1.5"
       id="path5"
       style="stroke:#000000;stroke-opacity:1" /><path
       d="M 7,3.33782 C 8.47087,2.48697 10.1786,2 12,2 17.5228,2 22,6.47715 22,12 22,17.5228 17.5228,22 12,22 6.47715,22 2,17.5228 2,12 2,10.1786 2.48697,8.47087 3.33782,7"
       stroke="#1c274c"
       stroke-width="1.5"
       stroke-linecap="round"
       id="path6"
       style="stroke:#000000;stroke-opacity:1" /></g></svg>
